<?xml version="1.0" encoding="UTF-8" standalone="no"?>
<svg width="52px" height="45px" viewBox="0 0 52 45" version="1.1" xmlns="http://www.w3.org/2000/svg" xmlns:xlink="http://www.w3.org/1999/xlink">
    <!-- Generator: Sketch 46.2 (44496) - http://www.bohemiancoding.com/sketch -->
    <title>Shape</title>
    <desc>Created with Sketch.</desc>
    <defs></defs>
    <g id="Page-1" stroke="none" stroke-width="1" fill="none" fill-rule="evenodd">
        <g id="Group-22" transform="translate(2.000000, 2.000000)" stroke="#4D4D4D" stroke-width="3">
            <path d="M39,0 L9,0 C4.03725,0 0,3.94149107 0,8.78571429 L0,23.4285714 C0,28.2727946 4.03725,32.2142857 9,32.2142857 L9,38.0714286 C9,39.2560357 9.730875,40.3238661 10.85175,40.7774286 C11.223,40.9271518 11.613375,41 11.999625,41 C12.780375,41 13.548,40.70275 14.121375,40.1422946 L22.242375,32.2142857 L39,32.2142857 C43.96275,32.2142857 48,28.2727946 48,23.4285714 L48,8.78571429 C48,3.94149107 43.96275,0 39,0 L39,0 Z" id="Shape"></path>
        </g>
    </g>
</svg>